<?xml version="1.0" encoding="UTF-8"?>
<svg xmlns="http://www.w3.org/2000/svg" xmlns:xlink="http://www.w3.org/1999/xlink" width="45px" height="45px" viewBox="0 0 45 45" version="1.1">
<g id="surface1">
<path style=" stroke:none;fill-rule:nonzero;fill:rgb(0%,0%,0%);fill-opacity:1;" d="M 32.519531 1.585938 C 32.269531 1.582031 32.007812 1.601562 31.722656 1.648438 C 24.546875 2.839844 28.324219 14.15625 28.550781 20.753906 C 21.152344 19.320312 13.785156 31.394531 3.140625 34.183594 C 8.246094 38.796875 21.25 42.058594 32.296875 35.226562 C 35.796875 33.0625 36.273438 27.136719 35.316406 20.71875 C 34.726562 16.777344 29.007812 9.015625 34.414062 8.304688 L 34.464844 8.257812 C 35.597656 7.328125 35.925781 6.164062 36.445312 4.945312 L 36.59375 4.597656 C 35.566406 3.1875 34.558594 1.609375 32.519531 1.585938 Z M 32.96875 3.308594 C 33.40625 3.308594 33.757812 3.664062 33.757812 4.101562 C 33.757812 4.535156 33.40625 4.890625 32.96875 4.890625 C 32.53125 4.890625 32.175781 4.535156 32.175781 4.101562 C 32.175781 3.664062 32.53125 3.308594 32.96875 3.308594 Z M 37.601562 6.3125 C 37.3125 7.03125 36.949219 7.847656 36.316406 8.625 C 38.164062 9.292969 40 8.894531 41.859375 8.546875 C 40.496094 7.734375 39.046875 6.949219 37.601562 6.3125 Z M 29.722656 22.226562 C 31.402344 24.503906 31.601562 26.96875 30.746094 29.097656 C 29.890625 31.226562 28.078125 33.035156 25.855469 34.414062 C 21.402344 37.171875 15.195312 38.320312 10.863281 35.917969 L 11.632812 34.535156 C 15.179688 36.503906 20.976562 35.574219 25.019531 33.070312 C 27.042969 31.816406 28.601562 30.195312 29.277344 28.507812 C 29.957031 26.816406 29.859375 25.074219 28.449219 23.164062 Z M 24.019531 40.105469 C 23.460938 40.21875 22.902344 40.3125 22.339844 40.390625 L 22.03125 41.835938 L 20.882812 41.835938 L 21.191406 40.53125 C 20.640625 40.585938 20.085938 40.632812 19.535156 40.660156 L 18.882812 43.417969 L 27.300781 43.417969 L 27.300781 41.835938 L 23.648438 41.835938 Z M 24.019531 40.105469 "/>
</g>
</svg>
